<svg width="30" height="22" viewBox="0 0 30 22" fill="none" xmlns="http://www.w3.org/2000/svg">
<path d="M22.9248 5C25.4854 5.00004 27.5615 7.07615 27.5615 9.63672C27.5614 11.0946 26.8872 12.3943 25.835 13.2441C28.238 14.1505 29.909 16.1543 29.9092 18.4824C29.9092 21.661 29.5779 22 23.2861 22C20.8359 22 19.2081 21.9562 18.127 21.7627C18.5122 21.3792 18.7298 20.8821 18.8506 20.2324C19.6765 20.4172 21.0225 20.4551 23.2129 20.4551C28.1057 20.4551 28.3642 20.2288 28.3643 18.1104C28.3643 15.9914 25.9422 14.2736 22.9551 14.2734C21.2488 14.2734 19.7268 14.8335 18.7354 15.709C18.603 15.216 18.4245 14.739 18.2002 14.2822C18.738 13.8652 19.3563 13.5185 20.0332 13.2588C18.9704 12.4093 18.2882 11.1031 18.2881 9.63672C18.2881 7.07613 20.3642 5 22.9248 5ZM22.9248 6.5459C21.218 6.54613 19.8341 7.92986 19.834 9.63672C19.8342 11.3434 21.2181 12.7273 22.9248 12.7275C24.6315 12.7273 26.0164 11.3434 26.0166 9.63672C26.0165 7.92987 24.6316 6.54614 22.9248 6.5459Z" fill="black"/>
<path d="M8.96191 0C12.2754 0.000263871 14.9619 2.68645 14.9619 6C14.9619 7.88688 14.0894 9.56905 12.7275 10.6689C15.8375 11.8419 18 14.4352 18 17.4482C18 21.5618 17.5714 22 9.42871 22C0.428711 22 0 21.5618 0 17.4482C1.61292e-05 14.4525 2.13747 11.8709 5.21875 10.6885C3.84325 9.58902 2.96191 7.89784 2.96191 6C2.96191 2.68629 5.64821 0 8.96191 0ZM9 11.5C4.85799 11.5 1.5002 14.0009 1.5 17.0859C1.5 20.1711 1.85742 20.5 9.35742 20.5C16.1429 20.5 16.5 20.1711 16.5 17.0859C16.4998 14.0009 13.142 11.5 9 11.5ZM9 1.5C6.51472 1.5 4.5 3.51472 4.5 6C4.5 8.48528 6.51472 10.5 9 10.5C11.4853 10.5 13.5 8.48528 13.5 6C13.5 3.51472 11.4853 1.5 9 1.5Z" fill="black"/>
</svg>
