<svg width="20" height="22" viewBox="0 0 20 22" fill="none" xmlns="http://www.w3.org/2000/svg">
<path d="M9.97287 0.000409444C9.79518 0.00657075 9.62409 0.0702691 9.48459 0.182197L1.58854 6.49849C0.586376 7.30042 0 8.52582 0 9.82134L0 20.5898C0 21.359 0.631337 22 1.38889 22H6.94444C7.702 22 8.33333 21.359 8.33333 20.5898L8.33333 14.9489C8.33333 14.7824 8.4472 14.6668 8.61111 14.6668H11.3889C11.5528 14.6668 11.6667 14.7824 11.6667 14.9489L11.6667 20.5898C11.6667 21.359 12.298 22 13.0556 22H18.6111C19.3687 22 20 21.359 20 20.5898L20 9.82134C20 8.52582 19.4136 7.30042 18.4115 6.49849L10.5154 0.182197C10.3613 0.0585904 10.1692 -0.00579064 9.97287 0.000409444ZM10 1.92405L17.3806 7.82829C17.9829 8.31023 18.3333 9.04326 18.3333 9.82134L18.3333 20.3077H13.3333L13.3333 14.9489C13.3333 13.8686 12.4528 12.9745 11.3889 12.9745H8.61111C7.54725 12.9745 6.66667 13.8686 6.66667 14.9489L6.66667 20.3077H1.66667L1.66667 9.82134C1.66667 9.04326 2.01708 8.31023 2.61936 7.82829L10 1.92405Z" fill="white"/>
</svg>
