<?xml version="1.0" encoding="UTF-8"?>
<svg id="Layer_2" data-name="Layer 2" xmlns="http://www.w3.org/2000/svg" viewBox="0 0 255.59 250.18">
  <defs>
    <style>
      .cls-1 {
        fill: #fae8a9;
      }

      .cls-2 {
        fill: #f4c355;
      }

      .cls-3 {
        fill: #e6b248;
      }

      .cls-4 {
        fill: #c07a2a;
      }

      .cls-5 {
        fill: #ce8e2c;
      }

      .cls-6 {
        fill: #d89c3c;
      }

      .cls-7 {
        fill: none;
        stroke: #d09633;
        stroke-miterlimit: 10;
        stroke-width: 2px;
      }

      .cls-8 {
        fill: #d89e40;
      }

      .cls-9 {
        fill: #f6d473;
      }

      .cls-10 {
        fill: #bb792a;
      }
    </style>
  </defs>
  <g id="Layer_1-2" data-name="Layer 1">
    <g>
      <g>
        <path class="cls-6" d="M83.99,228.79c2.83,4.7,5.67,9.41,8.5,14.11,4.79,1.78,12.01,4.11,21,5.63,50.36,8.53,89.86-19.42,94.99-23.17,18.27-13.36,28.07-28.28,30.9-32.8,3.58-5.71,9.44-15.23,12.95-29.04,1.86-7.32,8.78-34.61-5.83-60.68-5.23-9.32-11.61-15.64-16-19.4-2.24,14.54-11.63,63.39-54.96,102.56-36.11,32.64-75.85,40.52-91.54,42.78Z"/>
        <path class="cls-2" d="M248.63,127.36h0c0,.87-.02,1.7-.06,2.53h0c-.07,1.76-.19,3.45-.36,5.09-.1.95-.21,1.88-.33,2.79-.28,2.1-.62,4.09-1.01,5.97-.17.86-.35,1.68-.53,2.49h0c-.45,1.96-.92,3.76-1.38,5.41-.29.98-.56,1.91-.82,2.78-.29.93-.57,1.8-.82,2.59-.34,1.06-.69,2.1-1.06,3.12-.3.87-.62,1.72-.96,2.57-.74,1.92-1.54,3.79-2.38,5.62-.36.78-.74,1.56-1.12,2.33-1.05,2.13-2.16,4.18-3.34,6.17-.41.71-.83,1.41-1.27,2.1-1.38,2.26-2.85,4.42-4.36,6.49-.47.64-.94,1.26-1.42,1.88h0c-1.7,2.24-3.46,4.36-5.28,6.38-.5.58-1.02,1.14-1.54,1.7-1.78,1.91-3.59,3.73-5.42,5.45-.55.52-1.11,1.03-1.66,1.53-1.8,1.63-3.6,3.18-5.41,4.63-.59.48-1.17.95-1.76,1.4-2.25,1.76-4.49,3.39-6.69,4.89-.62.43-1.24.84-1.85,1.25-2.29,1.51-4.52,2.89-6.66,4.13-.65.38-1.3.75-1.93,1.11-2.19,1.23-4.27,2.33-6.19,3.29-.69.34-1.36.67-2,.97-2.65,1.28-4.94,2.27-6.72,3-.8.33-1.49.61-2.08.84-.45.17-.83.31-1.14.43-2.01.75-4.01,1.44-5.99,2.06h-.01c-.74.24-1.46.46-2.18.67-2.38.7-4.73,1.32-7.05,1.85h-.01c-.76.18-1.52.35-2.26.51h-.01c-2.59.55-5.14,1-7.65,1.36-.8.12-1.6.23-2.39.32-2.41.31-4.78.54-7.1.7h-.01c-.83.06-1.65.1-2.47.14-2.48.13-4.91.17-7.28.16-.86-.01-1.7-.02-2.54-.05-2.3-.06-4.54-.18-6.7-.35-.89-.06-1.77-.14-2.63-.22-2.05-.2-4.03-.44-5.94-.71-.93-.13-1.83-.27-2.72-.41h-.01c-1.94-.32-3.8-.66-5.56-1.03-.98-.19-1.93-.4-2.84-.61-1.69-.38-3.28-.77-4.75-1.16-.98-.26-1.91-.52-2.78-.77-2.47-.71-4.53-1.38-6.13-1.93-.03-.01-.05-.02-.08-.03,2.28-4.23,4.56-8.45,6.84-12.67,4.39-3.63,8.77-7.26,13.16-10.89v-23.56c7.33-5.18,14.66-10.37,22-15.55.58-9.78,1.17-19.56,1.76-29.33,8.15-4.82,16.31-9.63,24.46-14.45l3.78-30c7.33-4.15,14.66-8.31,22-12.47,1.48-5.77,2.96-11.54,4.44-17.31,2.15-4.44,4.3-8.89,6.45-13.33,5.21,1.77,39.23,13.94,53.62,47.35,0,.01.01.02.01.02.7,1.64,1.36,3.33,1.96,5.07,1.02,2.96,1.83,5.87,2.45,8.72.21.96.39,1.92.56,2.87.34,1.9.59,3.78.77,5.61.1.91.17,1.8.22,2.68.13,1.99.18,3.92.16,5.81Z"/>
        <path class="cls-1" d="M243.32,157.01c.22-.7.46-1.46.71-2.26l-131.01,80.5c15.97,1.76,36.36,1.15,58.05-6.96,7.56-2.83,56.5-22,72.24-71.28Z"/>
        <path class="cls-4" d="M181.82,240.05c-.67.28-1.36.56-2.07.84l-7.53-13.03c.59-.23,1.28-.51,2.08-.84l7.52,13.03Z"/>
        <path class="cls-4" d="M190.55,236.09c-.65.32-1.31.64-2,.97l-7.53-13.04c.64-.3,1.31-.63,2-.97l7.53,13.04Z"/>
        <path class="cls-4" d="M198.68,231.73c-.61.35-1.26.72-1.93,1.1l-7.54-13.07c.63-.36,1.28-.73,1.93-1.11l7.54,13.08Z"/>
        <path class="cls-4" d="M207.19,226.32c-.51.36-1.13.78-1.85,1.27l-7.54-13.07c.61-.41,1.23-.82,1.85-1.25l7.54,13.05Z"/>
        <g>
          <path class="cls-9" d="M188.88,48.84c-2.15,4.44-4.3,8.89-6.44,13.33-1.48,5.77-2.96,11.54-4.44,17.31-7.33,4.16-14.67,8.31-22,12.47-.55,4.37-1.1,8.74-1.65,13.12l64.42-39.58c-13.35-10.8-26.76-15.59-29.88-16.64Z"/>
          <path class="cls-9" d="M246.23,107.5c-.5-1.92-1.07-3.86-1.75-5.83-2.22-6.41-5.17-12.09-8.55-17.14l-109.06,67.01c-.29,4.86-.58,9.72-.88,14.58-7.33,5.18-14.67,10.37-22,15.55v13.22l142.23-87.4Z"/>
          <path class="cls-4" d="M99.1,245.17c-1-.3-1.94-.6-2.83-.9l-6.07-13.52c.87.25,1.8.51,2.78.77l6.12,13.65Z"/>
          <path class="cls-4" d="M108.11,247.53c-.98-.22-1.94-.44-2.86-.67l-7.52-14.18c.91.21,1.86.42,2.84.61l7.54,14.24Z"/>
          <path class="cls-4" d="M116.44,249.02c-.91-.12-1.82-.26-2.73-.42h-.01l-7.56-14.28c.89.14,1.79.28,2.72.41l7.58,14.29Z"/>
          <path class="cls-4" d="M124.98,249.92c-.87-.05-1.74-.12-2.62-.21l-7.56-14.27c.86.08,1.74.16,2.63.22l7.55,14.26Z"/>
          <path class="cls-4" d="M134.14,250.16c-.83.02-1.65.02-2.5,0l-7.51-14.16c.84.03,1.68.04,2.54.05l7.47,14.1Z"/>
          <path class="cls-4" d="M144.42,249.6c-.81.08-1.62.15-2.44.21h-.01l-8.02-13.91c.82-.04,1.64-.08,2.47-.14h.01l7.99,13.84Z"/>
          <path class="cls-4" d="M153.74,248.3c-.77.15-1.55.28-2.33.4l-7.88-13.64c.79-.09,1.59-.2,2.39-.32l7.82,13.56Z"/>
          <path class="cls-4" d="M163.53,246.18c-.74.19-1.49.38-2.24.56l-7.71-13.36c.74-.16,1.5-.33,2.26-.51h.01l7.68,13.31Z"/>
          <path class="cls-7" d="M182.44,62.57c7.39,3,36.01,15.59,46.07,44.22,13.81,39.29-16.97,81.43-47.41,100.15-39.39,24.22-82.25,11.69-90.27,9.19"/>
          <path class="cls-4" d="M172.66,243.48c-.71.24-1.43.47-2.16.7l-7.6-13.16c.72-.21,1.44-.43,2.18-.67h.01l7.57,13.13Z"/>
          <path class="cls-4" d="M215.52,219.84c-.56.48-1.14.96-1.73,1.44l-7.45-12.9c.59-.45,1.17-.92,1.76-1.4l7.42,12.86Z"/>
          <path class="cls-4" d="M223.14,212.81c-.53.53-1.07,1.06-1.62,1.59l-8.01-12.05c.55-.5,1.11-1.01,1.66-1.53l7.97,11.99Z"/>
          <path class="cls-4" d="M229.95,205.42c-.49.57-.99,1.15-1.51,1.74l-7.85-11.79c.52-.56,1.04-1.12,1.54-1.7l7.82,11.75Z"/>
          <path class="cls-4" d="M236.5,196.94c-.42.6-.88,1.25-1.39,1.93l-7.7-11.57h0c.48-.63.95-1.25,1.42-1.89l7.67,11.53Z"/>
          <path class="cls-4" d="M242.05,188.22c-.43.74-.86,1.44-1.27,2.11l-7.59-11.41c.44-.69.86-1.39,1.27-2.1l7.59,11.4Z"/>
          <path class="cls-4" d="M246.53,179.76c-.37.8-.75,1.57-1.12,2.32l-7.61-11.43c.38-.77.76-1.55,1.12-2.33l7.61,11.44Z"/>
          <path class="cls-4" d="M249.88,171.59c-.31.88-.62,1.74-.95,2.57l-7.63-11.46c.34-.85.66-1.7.96-2.57l7.62,11.46Z"/>
          <path class="cls-4" d="M252.47,162.94c-.05.23-.1.44-.15.63-.19.76-.39,1.51-.6,2.25l-7.58-11.4c.26-.87.53-1.8.82-2.78l7.51,11.3Z"/>
          <path class="cls-4" d="M254.22,154.8c-.05.32-.11.63-.17.95-.11.58-.22,1.15-.33,1.71-2.46-3.74-4.92-7.48-7.38-11.22h0c.18-.82.36-1.64.53-2.5l7.35,11.06Z"/>
          <path class="cls-4" d="M255.35,145.7h0c-.08,1-.16,1.96-.27,2.9l-7.2-10.83c.12-.91.23-1.84.33-2.79l7.14,10.72Z"/>
          <path class="cls-4" d="M255.59,139.41l-7.02-9.51h0c.04-.84.06-1.67.06-2.53l6.93,9.38h0c.02.91.03,1.79.03,2.66Z"/>
          <path class="cls-4" d="M255,129.35l-6.53-7.8c-.05-.88-.12-1.77-.22-2.68l6.35,7.59c.16.97.29,1.93.4,2.89Z"/>
          <path class="cls-4" d="M253.09,119.27l-5.61-6.01c-.17-.95-.35-1.91-.56-2.87l5.23,5.6h0c.34,1.1.66,2.2.94,3.28Z"/>
        </g>
      </g>
      <g>
        <path class="cls-8" d="M67.3,191.55c-2.1-.59-4.2-1.17-6.3-1.74-.08-.03-.15-.05-.23-.07h0c-8.46-2.71-19.9-7.86-30.36-17.86-4.9-4.69-10.02-10.87-14.27-17.85-.07-2.54-.13-5.08-.2-7.62,8.13,9.32,15.54,15,20.56,18.33,6.6,4.39,15.79,9.22,17.85,10.3,2.47,1.29,4.54,2.33,6,3.05,2.32,4.49,4.64,8.97,6.96,13.46Z"/>
        <g>
          <path class="cls-4" d="M18.3,157.39c-2.12-3.09-4.38-6.87-6.42-11.33-1.36-2.97-2.42-5.8-3.25-8.39,1,1.77,2.17,3.66,3.53,5.62,1.5,2.16,3.01,4.07,4.45,5.74.56,2.79,1.13,5.57,1.69,8.36Z"/>
          <path class="cls-4" d="M18.3,157.39c-2.12-3.09-4.38-6.87-6.42-11.33-1.36-2.97-2.42-5.8-3.25-8.39,1,1.77,2.17,3.66,3.53,5.62,1.5,2.16,3.01,4.07,4.45,5.74.56,2.79,1.13,5.57,1.69,8.36Z"/>
        </g>
        <path class="cls-5" d="M105.75,147.55c-7.56,4.66-15.11,9.33-22.67,14-3.2-4.02-6.39-8.03-9.59-12.04,7.31-4.35,14.61-8.69,21.92-13.04,3.45,3.69,6.89,7.38,10.34,11.08Z"/>
        <path class="cls-10" d="M108.64,115.33c-.97,10.74-1.93,21.48-2.89,32.22-3.45-3.7-6.89-7.39-10.34-11.08l2.97-31.11c3.42,3.32,6.84,6.64,10.26,9.97Z"/>
        <path class="cls-5" d="M135.3,97.1c-8.89,6.08-17.78,12.15-26.66,18.23-3.42-3.33-6.84-6.65-10.26-9.97,8.98-6.37,17.97-12.74,26.96-19.11,3.32,3.62,6.64,7.24,9.96,10.85Z"/>
        <path class="cls-10" d="M139.52,63.14c-1.4,11.32-2.81,22.64-4.22,33.96-3.32-3.61-6.64-7.23-9.96-10.85,1.18-10.91,2.37-21.83,3.55-32.74,3.54,3.21,7.09,6.42,10.63,9.63Z"/>
        <path class="cls-5" d="M158.86,49.1c-6.45,4.68-12.89,9.36-19.34,14.04-3.54-3.21-7.09-6.42-10.63-9.63,6.47-5.04,12.94-10.07,19.41-15.11,3.52,3.57,7.04,7.14,10.56,10.7Z"/>
        <path class="cls-4" d="M21.9,154.65l-1.4-1.39c.62,3.23,1.24,6.47,1.86,9.7.64.78,1.28,1.57,1.91,2.35-.79-3.56-1.58-7.11-2.38-10.67Z"/>
        <path class="cls-4" d="M28.94,170.42c.49.5.98.99,1.47,1.46.12.12.24.22.36.34-1.18-4.27-2.35-8.55-3.53-12.82-.57-.47-1.13-.93-1.69-1.41,1.13,4.15,2.26,8.29,3.39,12.44Z"/>
        <path class="cls-4" d="M36.47,177.08c.6.46,1.2.91,1.8,1.34-1.53-4.72-3.06-9.44-4.6-14.15-.57-.4-1.14-.81-1.72-1.23,1.5,4.68,3.01,9.36,4.51,14.04Z"/>
        <path class="cls-4" d="M44.76,182.64c.6.35,1.2.69,1.8,1.02-1.98-4.98-3.96-9.96-5.95-14.94-.59-.35-1.17-.7-1.77-1.06,1.97,4.99,3.94,9.99,5.91,14.98Z"/>
        <path class="cls-4" d="M46.45,171.95c2.01,4.88,4.02,9.75,6.03,14.63.63.28,1.25.54,1.86.8-2.05-4.85-4.09-9.69-6.14-14.54-.57-.28-1.16-.59-1.75-.89Z"/>
        <path class="cls-4" d="M56.33,176.52c-.51-.21-1.06-.44-1.62-.68,1.8,4.56,3.6,9.11,5.39,13.67.22.07.45.15.66.22h0c.08.03.15.05.23.08.23.06.46.13.7.19-1.79-4.49-3.58-8.99-5.37-13.48Z"/>
        <path class="cls-2" d="M76.37,8.29C32.9,24.09,5.47,62.05,1.24,86.25c-2.49,14.24.91,35.93,2.41,40.33,1.01,2.96,2.25,5.74,2.25,5.74.38.84.78,1.67,1.19,2.49.49.98,1,1.93,1.53,2.87,11.9,21.12,33.54,32.74,45.61,37.96,2.51,1.08,4.6,1.89,6.11,2.45,3.11-3.75,6.22-7.5,9.33-11.24,1.27-5.78,2.55-11.56,3.82-17.34,7.31-4.35,14.61-8.69,21.92-13.04l2.97-31.11c8.98-6.37,17.97-12.74,26.96-19.11.87-8.09,1.75-16.18,2.63-24.27.31-2.82.61-5.65.92-8.47,6.47-5.04,12.94-10.07,19.41-15.11v-20.15l9.21-11.82c-13.85-4.01-45.72-11.01-81.14,1.86Z"/>
        <path class="cls-9" d="M157.51,6.43l-9.21,11.82v20.15c-6.47,5.04-12.94,10.07-19.41,15.11-.31,2.82-.61,5.65-.92,8.47L7.09,134.81c-.41-.82-.81-1.65-1.19-2.49,0,0-1.24-2.78-2.25-5.74,0,0-6.23-18.18-2.41-40.33,3.67-21.28,21.7-50.68,50.45-68.71C98.22-11.64,149.25,3.79,157.51,6.43Z"/>
        <path class="cls-1" d="M122.42.19L6.36,70.12c7.81-18.37,23.52-38.8,45.5-52.58C76.45,2.13,102.3-.84,122.42.19Z"/>
        <path class="cls-7" d="M149.33,18.8c-4.51-1.72-52.25-19.04-93.57,9.86-2.83,1.98-52.04,37.54-39.82,85.26,9.77,38.12,50.52,51.9,53.73,52.93"/>
        <path class="cls-5" d="M165.08,19.33c-2.07,3.11-4.15,6.22-6.22,9.33-3.52-3.47-7.04-6.94-10.56-10.41l9.21-11.82c2.52,4.3,5.05,8.6,7.57,12.9Z"/>
        <path class="cls-5" d="M77.67,178.95c-3.45,4.2-6.91,8.4-10.37,12.6-2.32-4.49-4.64-8.97-6.96-13.46,3.11-3.75,6.22-7.5,9.33-11.24,2.67,4.03,5.34,8.07,8,12.1Z"/>
        <path class="cls-4" d="M83.08,161.55c-1.8,5.8-3.61,11.6-5.41,17.4-2.66-4.03-5.33-8.07-8-12.1,1.27-5.78,2.55-11.56,3.82-17.34,3.2,4.01,6.39,8.02,9.59,12.04Z"/>
        <path class="cls-10" d="M158.86,28.66v20.44c-3.52-3.56-7.04-7.13-10.56-10.7v-20.15c3.52,3.47,7.04,6.94,10.56,10.41Z"/>
      </g>
      <path class="cls-3" d="M45.86,10.1s-11.95,7.41-14.06,13.33c-.12.34-.44,1.24,0,1.79.34.43,1.02.52,1.52.43.82-.15,1.33-.8,1.44-.94,1.55-1.93,10.29-8.56,13.83-10.94,2.93-1.97,10.98-6.87,13.56-7.36.13-.02,1.39-.26,2.25-1.25.5-.57.45-.93.43-1.03-.1-.54-.82-.82-1.07-.92-4.16-1.62-17.89,6.89-17.89,6.89Z"/>
      <path class="cls-3" d="M212.36,237.06s8.05-5.26,13.56-12.37c1.58-2.04,1.29-2.64,1.18-2.79-.23-.32-.81-.37-1.18-.31-.79.11-1.29.74-1.41.88-1.43,1.73-10.19,9.14-13.26,11.48-6.09,4.65-13.91,7.79-15.33,7.78-.12,0-.81-.03-1.3.42-.28.26-.55.72-.43,1.03.25.62,2.02.45,2.61.4,6.53-.63,15.56-6.52,15.56-6.52Z"/>
      <path class="cls-3" d="M242.6,207.61s5.74-8.09,5.64-12.63c0-.26-.02-.95-.43-1.21-.32-.21-.77-.08-1.06.1-.48.31-.64.88-.68,1.01-.51,1.7-4.42,8.44-6.07,10.96-1.37,2.09-5.26,7.48-6.76,8.48-.07.05-.81.54-1.12,1.42-.17.52-.06.75-.02.81.2.34.71.34.9.34,3.01.01,9.61-9.28,9.61-9.28Z"/>
      <path class="cls-3" d="M69.03,1.64c-1.25.01-2.57,1.01-2.46,1.76.11.77,1.71,1.36,2.94.98.73-.23,1.67-.9,1.57-1.61-.1-.73-1.23-1.14-2.06-1.13Z"/>
    </g>
  </g>
</svg>