<svg width="22" height="22" viewBox="0 0 22 22" fill="none" xmlns="http://www.w3.org/2000/svg">
<path d="M0 14.8453C0 14.3475 0.50224 14 1 14C1.38239 14 1.69238 14.31 1.69238 14.6924V19.3076C1.69238 19.8599 2.1401 20.3076 2.69238 20.3076H8.15381C8.62115 20.3076 9 20.6865 9 21.1538C9 21.6211 8.62115 22 8.15381 22H2C0.895431 22 3.22133e-08 21.1046 0 20V14.8453ZM22 20C22 21.1046 21.1046 22 20 22H13.8462C13.3789 22 13 21.6211 13 21.1538C13 20.6865 13.3789 20.3076 13.8462 20.3076H19.3076C19.8599 20.3076 20.3076 19.8599 20.3076 19.3076V14.6924C20.3076 14.31 20.6176 14 21 14C21.4978 14 22 14.3475 22 14.8453V20ZM9 0.846191C9 1.31353 8.62115 1.69238 8.15381 1.69238H2.69238C2.1401 1.69238 1.69238 2.1401 1.69238 2.69238V7.30762C1.69238 7.69001 1.38239 8 1 8C0.502301 8 0 7.65161 0 7.15391V2C0 0.895431 0.895431 3.22128e-08 2 0H8.15381C8.62115 0 9 0.378853 9 0.846191ZM20 0C21.1046 0 22 0.895431 22 2V7.15391C22 7.65161 21.4977 8 21 8C20.6176 8 20.3076 7.69001 20.3076 7.30762V2.69238C20.3076 2.1401 19.8599 1.69238 19.3076 1.69238H13.8462C13.3789 1.69238 13 1.31353 13 0.846191C13 0.378853 13.3789 0 13.8462 0H20Z" fill="black"/>
<rect y="10" width="22" height="2" rx="1" fill="black"/>
</svg>
